<?xml version="1.0" encoding="UTF-8"?>
<svg version="1.1" xmlns="http://www.w3.org/2000/svg" width="169" height="173">
<path d="M0 0 C1.6610058 -0.00067487 3.3220115 -0.00164642 4.98301697 -0.00289917 C8.43977817 -0.00436384 11.89651333 -0.002259 15.35327148 0.00244141 C19.78858761 0.00817841 24.22384375 0.00482705 28.65915775 -0.00113106 C32.07769732 -0.00473578 35.49622251 -0.0035992 38.9147625 -0.00100327 C40.5514775 -0.00033583 42.18819381 -0.00115605 43.8249073 -0.00348282 C46.10083641 -0.0060122 48.37666622 -0.00216656 50.65258789 0.00341797 C51.94733536 0.00421356 53.24208282 0.00500916 54.57606506 0.00582886 C57.58984375 0.1328125 57.58984375 0.1328125 59.58984375 1.1328125 C59.61297291 8.41702798 59.63076176 15.7012356 59.64165592 22.98548031 C59.6468835 26.36753063 59.65397886 29.7495559 59.6652832 33.1315918 C59.67818642 37.01611027 59.68307299 40.90061847 59.6875 44.78515625 C59.69266129 46.00492661 59.69782257 47.22469696 59.70314026 48.48143005 C59.70321579 49.60251663 59.70329132 50.72360321 59.70336914 51.87866211 C59.70558975 52.87127548 59.70781036 53.86388885 59.71009827 54.88658142 C59.58984375 57.1328125 59.58984375 57.1328125 58.58984375 58.1328125 C55.93528182 58.23376814 53.30729199 58.27252248 50.65234375 58.265625 C49.85707275 58.26658173 49.06180176 58.26753845 48.24243164 58.26852417 C46.55777915 58.26920593 44.87312404 58.26735193 43.18847656 58.26318359 C40.60085178 58.25783525 38.01340059 58.26312869 35.42578125 58.26953125 C33.79296836 58.26887047 32.16015559 58.2675893 30.52734375 58.265625 C29.74818604 58.26764923 28.96902832 58.26967346 28.16625977 58.27175903 C22.7047948 58.24776355 22.7047948 58.24776355 21.58984375 57.1328125 C21.4336382 55.71953303 21.33928202 54.2992666 21.2734375 52.87890625 C21.23154297 52.02490234 21.18964844 51.17089844 21.14648438 50.29101562 C21.10716797 49.39318359 21.06785156 48.49535156 21.02734375 47.5703125 C20.98416016 46.66861328 20.94097656 45.76691406 20.89648438 44.83789062 C20.79006233 42.60302765 20.68804387 40.36804942 20.58984375 38.1328125 C15.23647472 38.17733116 9.88424447 38.24754018 4.53149414 38.34033203 C2.7151807 38.36834715 0.89874975 38.38965724 -0.91772461 38.40380859 C-14.48177348 38.51575398 -27.1690597 39.02646722 -37.41015625 49.1328125 C-44.18347338 57.29158086 -47.02237578 65.58366403 -46.6875 76.15234375 C-45.77631506 85.94437341 -41.70917966 93.68733367 -34.85546875 100.73046875 C-28.8734213 105.59646257 -19.91747993 108.224104 -12.28515625 108.5703125 C-0.52111164 107.24211391 8.85213894 103.2314787 16.37890625 93.875 C18.07503964 91.43475648 19.31459532 88.8108342 20.58984375 86.1328125 C23.64547522 84.60499676 26.83608257 84.99070996 30.1875 85 C30.93696396 84.99904327 31.68642792 84.99808655 32.45860291 84.99710083 C34.04312219 84.99642009 35.62764427 84.99826699 37.2121582 85.00244141 C39.6460593 85.00779867 42.07977648 85.00248903 44.51367188 84.99609375 C46.05078166 84.9967544 47.58789133 84.9980353 49.125 85 C49.8572731 84.99797577 50.5895462 84.99595154 51.3440094 84.99386597 C56.47488707 85.01785582 56.47488707 85.01785582 57.58984375 86.1328125 C57.02606664 103.32801449 46.33355957 117.3694124 34.65625 129.0703125 C21.44607523 141.3741759 4.2490505 147.3117234 -13.62451172 147.26220703 C-14.41396683 147.26395935 -15.20342194 147.26571167 -16.01679993 147.26751709 C-18.60367078 147.27188805 -21.19047231 147.26901618 -23.77734375 147.265625 C-25.58098361 147.266299 -27.38462339 147.26726983 -29.18826294 147.26852417 C-32.95559561 147.26999434 -36.72290448 147.26786697 -40.49023438 147.26318359 C-45.32932343 147.25746206 -50.16835731 147.26078486 -55.00744438 147.26675606 C-58.7253359 147.2703591 -62.4432142 147.2692247 -66.16110611 147.26662827 C-67.94657523 147.26595956 -69.73204554 147.26678548 -71.51751328 147.26910782 C-74.00243091 147.27163278 -76.48725719 147.26779713 -78.97216797 147.26220703 C-80.08639381 147.26524338 -80.08639381 147.26524338 -81.22312927 147.26834106 C-86.29588836 147.24708039 -86.29588836 147.24708039 -87.41015625 146.1328125 C-87.52120858 143.61528851 -87.56754574 141.12494465 -87.57128906 138.60644531 C-87.57625397 137.81763474 -87.58121887 137.02882416 -87.58633423 136.21611023 C-87.60101147 133.58937723 -87.60777183 130.96270489 -87.61328125 128.3359375 C-87.61903414 126.50762938 -87.62479186 124.67932127 -87.6305542 122.85101318 C-87.64108403 119.00402546 -87.64691173 115.15705872 -87.65039062 111.31005859 C-87.65583824 106.41134092 -87.67977685 101.51290646 -87.70836258 96.61427689 C-87.72712454 92.82897173 -87.73220201 89.04373241 -87.7337265 85.2583847 C-87.73672999 83.45490748 -87.74467941 81.65143076 -87.75791168 79.84799957 C-87.8493945 66.40489228 -87.07568871 53.92998557 -80.59765625 41.8203125 C-80.24727295 41.14371582 -79.89688965 40.46711914 -79.53588867 39.77001953 C-76.92905549 34.84395454 -74.0160737 30.39052844 -70.41015625 26.1328125 C-69.70890625 25.1634375 -69.00765625 24.1940625 -68.28515625 23.1953125 C-56.70150344 9.66266414 -38.12557667 1.78986955 -20.74807739 0.32476807 C-13.83817096 -0.07260351 -6.91887627 -0.00996344 0 0 Z " fill="#01CFC7" transform="translate(100.41015625,5.8671875)"/>
<path d="M0 0 C0.74946396 -0.00095673 1.49892792 -0.00191345 2.27110291 -0.00289917 C3.85562219 -0.00357991 5.44014427 -0.00173301 7.0246582 0.00244141 C9.4585593 0.00779867 11.89227648 0.00248903 14.32617188 -0.00390625 C15.86328166 -0.0032456 17.40039133 -0.0019647 18.9375 0 C19.6697731 -0.00202423 20.4020462 -0.00404846 21.1565094 -0.00613403 C26.28738707 0.01785582 26.28738707 0.01785582 27.40234375 1.1328125 C26.83856664 18.32801449 16.14605957 32.3694124 4.46875 44.0703125 C-8.73906752 56.37198038 -25.95292251 62.33410304 -43.82788086 62.24633789 C-45.01447296 62.24655693 -45.01447296 62.24655693 -46.22503662 62.2467804 C-48.81671984 62.24608866 -51.40832947 62.23833113 -54 62.23046875 C-55.80603496 62.22860194 -57.61207043 62.22717928 -59.41810608 62.22618103 C-64.15436215 62.22237654 -68.89058718 62.21256404 -73.62683105 62.20147705 C-78.46671123 62.19121833 -83.30659645 62.18667388 -88.14648438 62.18164062 C-97.63022191 62.17093981 -107.11393649 62.15388839 -116.59765625 62.1328125 C-116.92765625 61.4728125 -117.25765625 60.8128125 -117.59765625 60.1328125 C-116.8641394 59.72657654 -116.13062256 59.32034058 -115.37487793 58.90179443 C-112.55137906 57.10333573 -110.48915576 55.22724402 -108.16210938 52.82910156 C-106.89554504 51.53326141 -106.89554504 51.53326141 -105.60339355 50.21124268 C-104.70431274 49.28301697 -103.80523193 48.35479126 -102.87890625 47.3984375 C-101.93484527 46.4353903 -100.98988416 45.47322473 -100.04406738 44.51190186 C-96.0406982 40.44155244 -92.04601161 36.36297555 -88.07177734 32.26416016 C-85.63442833 29.75158233 -83.18273152 27.25380353 -80.72117615 24.76494598 C-79.3337427 23.35357308 -77.9626951 21.92615278 -76.59191895 20.49859619 C-75.74754272 19.6473114 -74.9031665 18.79602661 -74.03320312 17.91894531 C-73.29549683 17.16188293 -72.55779053 16.40482056 -71.79772949 15.62481689 C-69.59765625 14.1328125 -69.59765625 14.1328125 -66.97155762 14.27606201 C-63.9807774 15.35544654 -62.0681475 17.14445948 -59.59765625 19.1328125 C-48.3806266 23.78622813 -39.00246978 24.45429455 -27.59765625 20.1328125 C-19.05442207 15.71389827 -13.69799814 9.74353046 -9.59765625 1.1328125 C-6.54202478 -0.39500324 -3.35141743 -0.00929004 0 0 Z " fill="#00ADA7" transform="translate(130.59765625,90.8671875)"/>
<path d="M0 0 C2.3515625 1.546875 2.3515625 1.546875 4.625 3.75 C5.47191406 4.56082031 6.31882813 5.37164062 7.19140625 6.20703125 C8.11824219 7.12871094 9.04507813 8.05039062 10 9 C11.09202608 10.06683822 12.18448891 11.13322952 13.27734375 12.19921875 C22.8303686 21.59166489 22.8303686 21.59166489 23.3359375 25.7890625 C22.9020585 29.93613851 21.47175023 31.38456521 18.625 34.375 C17.81289062 35.24898437 17.00078125 36.12296875 16.1640625 37.0234375 C14 39 14 39 12 39 C12 39.66 12 40.32 12 41 C11.34 41 10.68 41 10 41 C10 41.66 10 42.32 10 43 C8.3203125 44.65625 8.3203125 44.65625 6.125 46.5 C4.00964496 48.28933258 1.95980876 50.04019124 0 52 C-3.01386579 52.64582838 -5.0319847 52.61907955 -7.6796875 50.92578125 C-9.89108377 49.04182348 -11.93858379 47.04851219 -14 45 C-15.19657445 43.82938606 -16.39319264 42.65881683 -17.58984375 41.48828125 C-20.10945045 39.00523707 -22.62483146 36.51824528 -25.12109375 34.01171875 C-25.6514624 33.48022217 -26.18183105 32.94872559 -26.72827148 32.40112305 C-28.6119232 30.32581547 -28.99547749 29.03448641 -29.36376953 26.22607422 C-28.8744131 21.88623802 -27.23368059 20.45914021 -24.1796875 17.3828125 C-23.68340851 16.88079315 -23.18712952 16.3787738 -22.67581177 15.86154175 C-21.62554923 14.80720755 -20.56771605 13.76036749 -19.50292969 12.72070312 C-17.87971668 11.12962331 -16.29100911 9.50906556 -14.703125 7.8828125 C-13.67639736 6.86004991 -12.64780993 5.83915025 -11.6171875 4.8203125 C-10.68503418 3.89492676 -9.75288086 2.96954102 -8.79248047 2.01611328 C-5.51660724 -0.3489996 -3.95305329 -0.56265079 0 0 Z " fill="#01CEC7" transform="translate(90,53)"/>
<path d="M0 0 C1.65528833 0.00119576 3.31057735 0.00164413 4.96586609 0.00138855 C8.39875667 0.00293702 11.83154052 0.0111083 15.2644043 0.0246582 C19.66822503 0.04182129 24.07193115 0.0454667 28.47578144 0.04471302 C31.87716264 0.04498417 35.27851872 0.05045367 38.67989159 0.05771446 C40.30544025 0.06089597 41.93099174 0.06286733 43.55654335 0.06360817 C45.81289223 0.06576736 48.06911708 0.07449723 50.32543945 0.08520508 C51.6081221 0.08901688 52.89080475 0.09282867 54.21235657 0.09675598 C57.19921875 0.23046875 57.19921875 0.23046875 59.19921875 1.23046875 C59.22234791 8.51468423 59.24013676 15.79889185 59.25103092 23.08313656 C59.2562585 26.46518688 59.26335386 29.84721215 59.2746582 33.22924805 C59.28756142 37.11376652 59.29244799 40.99827472 59.296875 44.8828125 C59.30203629 46.10258286 59.30719757 47.32235321 59.31251526 48.5790863 C59.31259079 49.70017288 59.31266632 50.82125946 59.31274414 51.97631836 C59.31496475 52.96893173 59.31718536 53.9615451 59.31947327 54.98423767 C59.19921875 57.23046875 59.19921875 57.23046875 58.19921875 58.23046875 C55.53295845 58.31902036 52.89274761 58.34571548 50.2265625 58.328125 C49.42891983 58.32671005 48.63127716 58.3252951 47.8094635 58.32383728 C45.2518444 58.31822191 42.69431157 58.30566687 40.13671875 58.29296875 C38.4069023 58.28795573 36.67708449 58.28339248 34.94726562 58.27929688 C30.69788322 58.2682475 26.44856563 58.25097261 22.19921875 58.23046875 C20.8658978 55.56382685 21.52819842 54.06366572 22.19921875 51.23046875 C22.52921875 51.23046875 22.85921875 51.23046875 23.19921875 51.23046875 C23.19921875 52.88046875 23.19921875 54.53046875 23.19921875 56.23046875 C34.41921875 56.23046875 45.63921875 56.23046875 57.19921875 56.23046875 C57.19921875 38.41046875 57.19921875 20.59046875 57.19921875 2.23046875 C43.29780351 2.37983243 43.29780351 2.37983243 29.39648438 2.53710938 C23.71755309 2.60311111 18.03862223 2.66823346 12.35961914 2.7277832 C7.77542581 2.77591177 3.19129755 2.82826398 -1.39281654 2.8834095 C-3.13206653 2.9036159 -4.87133419 2.92236127 -6.61061668 2.93954277 C-16.38591206 3.037153 -26.06227693 3.30460898 -35.80078125 4.23046875 C-26.59671256 -1.90557704 -10.74054808 -0.05201618 0 0 Z " fill="#0AC8C0" transform="translate(100.80078125,5.76953125)"/>
<path d="M0 0 C3.00835923 1.08559067 5.01866681 2.75763454 7.39855957 4.86553955 C7.06855957 5.52553955 6.73855957 6.18553955 6.39855957 6.86553955 C3.89855957 5.49053955 3.89855957 5.49053955 1.39855957 3.86553955 C1.39855957 3.20553955 1.39855957 2.54553955 1.39855957 1.86553955 C-2.45851295 2.42702892 -4.20668892 4.10577522 -6.91101074 6.83453369 C-7.76324219 7.68712769 -8.61547363 8.53972168 -9.49353027 9.41815186 C-10.82311768 10.77076111 -10.82311768 10.77076111 -12.17956543 12.1506958 C-13.41198975 13.38765198 -13.41198975 13.38765198 -14.66931152 14.64959717 C-17.73825323 17.73424294 -20.7940604 20.83193392 -23.85144043 23.92803955 C-30.69894043 30.83741455 -37.54644043 37.74678955 -44.60144043 44.86553955 C-18.86144043 45.19553955 6.87855957 45.52553955 33.39855957 45.86553955 C30.89837545 48.36572367 29.4199866 48.10067682 26.00935364 48.11437988 C24.88402473 48.10359406 24.88402473 48.10359406 23.73596191 48.09259033 C22.94563065 48.09288239 22.15529938 48.09317444 21.34101868 48.09347534 C18.72206743 48.09207917 16.10339877 48.0765046 13.48449707 48.06085205 C11.67131709 48.05712294 9.8581351 48.05427549 8.04495239 48.05227661 C3.26748106 48.04463212 -1.5098691 48.02497667 -6.28729248 48.00286865 C-11.16022095 47.98242775 -16.03316896 47.97327866 -20.90612793 47.9631958 C-30.4712854 47.94173152 -40.03635285 47.90758578 -49.60144043 47.86553955 C-49.93144043 47.20553955 -50.26144043 46.54553955 -50.60144043 45.86553955 C-49.86792358 45.45930359 -49.13440674 45.05306763 -48.37866211 44.63452148 C-45.55516324 42.83606279 -43.49293994 40.95997107 -41.16589355 38.56182861 C-39.89932922 37.26598846 -39.89932922 37.26598846 -38.60717773 35.94396973 C-37.70809692 35.01574402 -36.80901611 34.08751831 -35.88269043 33.13116455 C-34.93862945 32.16811735 -33.99366834 31.20595178 -33.04785156 30.24462891 C-29.04448238 26.17427949 -25.04979579 22.0957026 -21.07556152 17.99688721 C-18.63821251 15.48430938 -16.1865157 12.98653058 -13.72496033 10.49767303 C-12.33752688 9.08630013 -10.96647928 7.65887983 -9.59570312 6.23132324 C-8.7513269 5.38003845 -7.90695068 4.52875366 -7.0369873 3.65167236 C-6.29928101 2.89460999 -5.56157471 2.13754761 -4.80151367 1.35754395 C-2.60144043 -0.13446045 -2.60144043 -0.13446045 0 0 Z " fill="#169C94" transform="translate(63.6014404296875,105.13446044921875)"/>
<path d="M0 0 C0.74946396 -0.00095673 1.49892792 -0.00191345 2.27110291 -0.00289917 C3.85562219 -0.00357991 5.44014427 -0.00173301 7.0246582 0.00244141 C9.4585593 0.00779867 11.89227648 0.00248903 14.32617188 -0.00390625 C15.86328166 -0.0032456 17.40039133 -0.0019647 18.9375 0 C19.6697731 -0.00202423 20.4020462 -0.00404846 21.1565094 -0.00613403 C26.28738707 0.01785582 26.28738707 0.01785582 27.40234375 1.1328125 C26.92843371 15.58706887 18.94316837 28.68333791 9.40234375 39.1328125 C9.40234375 35.91402236 9.76765342 34.83005154 11.40234375 32.1328125 C12.73567708 30.79947917 14.06901042 29.46614583 15.40234375 28.1328125 C15.89734375 26.6478125 15.89734375 26.6478125 16.40234375 25.1328125 C17.06234375 25.1328125 17.72234375 25.1328125 18.40234375 25.1328125 C18.53374756 24.5665918 18.66515137 24.00037109 18.80053711 23.41699219 C19.41762077 21.07482801 20.18765427 18.85597693 21.03125 16.5859375 C21.34384766 15.74160156 21.65644531 14.89726563 21.97851562 14.02734375 C22.30400391 13.15464844 22.62949219 12.28195313 22.96484375 11.3828125 C23.29419922 10.49464844 23.62355469 9.60648438 23.96289062 8.69140625 C24.77416154 6.50450204 25.5873742 4.31834049 26.40234375 2.1328125 C21.91839072 2.00902005 17.43534773 1.91838679 12.95019531 1.8581543 C11.42527945 1.83304147 9.9004836 1.79894367 8.37597656 1.75561523 C6.18133949 1.69481206 3.98829565 1.66657363 1.79296875 1.64453125 C0.47329102 1.61834717 -0.84638672 1.59216309 -2.20605469 1.56518555 C-5.7533554 1.8181942 -5.7533554 1.8181942 -7.98217773 4.55029297 C-8.51528564 5.40252441 -9.04839355 6.25475586 -9.59765625 7.1328125 C-10.00628906 7.72964844 -10.41492188 8.32648438 -10.8359375 8.94140625 C-11.19042969 9.47894531 -11.54492188 10.01648438 -11.91015625 10.5703125 C-14.60609863 14.41203039 -17.92730087 17.2451842 -21.59765625 20.1328125 C-21.92765625 19.1428125 -22.25765625 18.1528125 -22.59765625 17.1328125 C-22.07816406 16.73191406 -21.55867188 16.33101562 -21.0234375 15.91796875 C-16.278258 12.04990191 -13.27889607 8.46823729 -10.60546875 2.953125 C-8.38078117 -1.06510916 -4.04878912 -0.01122314 0 0 Z " fill="#0CC5C0" transform="translate(130.59765625,90.8671875)"/>
<path d="M0 0 C0.66 0.33 1.32 0.66 2 1 C-0.18532752 3.35619114 -2.3736697 5.70956287 -4.5625 8.0625 C-5.17158203 8.71927734 -5.78066406 9.37605469 -6.40820312 10.05273438 C-7.01728516 10.70693359 -7.62636719 11.36113281 -8.25390625 12.03515625 C-8.86508301 12.69789551 -9.47625977 13.36063477 -10.10595703 14.04345703 C-12 16 -12 16 -14.06201172 17.81201172 C-18.05760535 21.33670558 -18.05760535 21.33670558 -19.48046875 26.3515625 C-17.25555339 31.83459929 -13.52347627 35.30581855 -9.3125 39.375 C-8.50876953 40.19355469 -7.70503906 41.01210937 -6.87695312 41.85546875 C-1.40338858 47.31955476 -1.40338858 47.31955476 6 49 C7.89958081 47.68681738 7.89958081 47.68681738 9 46 C9.66 46.33 10.32 46.66 11 47 C8.87520414 49.61513337 7.55544643 50.86113839 4.25 51.6875 C-0.81155811 50.61678578 -3.39163194 47.58578047 -7 44 C-8.19657445 42.82938606 -9.39319264 41.65881683 -10.58984375 40.48828125 C-13.10945045 38.00523707 -15.62483146 35.51824528 -18.12109375 33.01171875 C-18.6514624 32.48022217 -19.18183105 31.94872559 -19.72827148 31.40112305 C-21.61711756 29.32009259 -21.99611992 28.02977335 -22.36328125 25.21240234 C-21.87606322 20.90405904 -20.27972242 19.58836824 -17.1875 16.6015625 C-16.69918701 16.1217392 -16.21087402 15.64191589 -15.70776367 15.14755249 C-14.15206962 13.6253199 -12.57680579 12.12532253 -11 10.625 C-9.93874055 9.5938495 -8.87882786 8.56131098 -7.8203125 7.52734375 C-5.22894777 5.00196381 -2.61961148 2.49610465 0 0 Z " fill="#09C5BA" transform="translate(83,54)"/>
<path d="M0 0 C0.66 0.33 1.32 0.66 2 1 C-0.18532752 3.35619114 -2.3736697 5.70956287 -4.5625 8.0625 C-5.17158203 8.71927734 -5.78066406 9.37605469 -6.40820312 10.05273438 C-9.5213425 13.39647666 -12.65586576 16.71965905 -15.83984375 19.99609375 C-16.39921631 20.57415771 -16.95858887 21.15222168 -17.53491211 21.74780273 C-19 23 -19 23 -21 23 C-19.48623919 19.43235715 -17.39486871 17.16293713 -14.6484375 14.453125 C-13.79765625 13.60878906 -12.946875 12.76445313 -12.0703125 11.89453125 C-11.18085937 11.02183594 -10.29140625 10.14914063 -9.375 9.25 C-8.4778125 8.36183594 -7.580625 7.47367188 -6.65625 6.55859375 C-4.44192996 4.36783031 -2.22307565 2.18187237 0 0 Z " fill="#11CAC0" transform="translate(83,54)"/>
<path d="M0 0 C0.66 0.33 1.32 0.66 2 1 C0.27840626 2.94470746 -1.45166256 4.88057309 -3.1875 6.8125 C-3.67025391 7.35970703 -4.15300781 7.90691406 -4.65039062 8.47070312 C-7.51496216 11.64287965 -10.15659006 13.99749208 -14 16 C-10.88847163 9.29260159 -5.73988517 4.50990977 0 0 Z " fill="#1BCEC5" transform="translate(41,21)"/>
<path d="M0 0 C0.66 0.33 1.32 0.66 2 1 C-0.91115344 7.67139331 -4.66930715 12.99768659 -10 18 C-10.99 18.33 -11.98 18.66 -13 19 C-13 18.01 -13 17.02 -13 16 C-11.42578125 14.4921875 -11.42578125 14.4921875 -9.3125 12.875 C-4.86833941 9.18863589 -2.44185523 5.17720268 0 0 Z " fill="#0EBBB7" transform="translate(121,92)"/>
</svg>
